<?xml version="1.0" encoding="UTF-8"?>
<!DOCTYPE svg PUBLIC "-//W3C//DTD SVG 1.1//EN" "http://www.w3.org/Graphics/SVG/1.1/DTD/svg11.dtd">
<svg xmlns="http://www.w3.org/2000/svg" version="1.1" width="1024px" height="1024px" style="shape-rendering:geometricPrecision; text-rendering:geometricPrecision; image-rendering:optimizeQuality; fill-rule:evenodd; clip-rule:evenodd" xmlns:xlink="http://www.w3.org/1999/xlink">
<g><path style="opacity:1" fill="#fefefe" d="M -0.5,-0.5 C 340.833,-0.5 682.167,-0.5 1023.5,-0.5C 1023.5,340.833 1023.5,682.167 1023.5,1023.5C 682.167,1023.5 340.833,1023.5 -0.5,1023.5C -0.5,682.167 -0.5,340.833 -0.5,-0.5 Z"/></g>
<g><path style="opacity:1" fill="#835cfd" d="M 347.5,466.5 C 346.823,471.801 346.323,477.134 346,482.5C 345.667,480.833 345.333,479.167 345,477.5C 344.333,478.833 343.667,478.833 343,477.5C 342.885,479.107 343.385,480.607 344.5,482C 344,483.5 343.5,485 343,486.5C 341.873,483.093 340.54,483.426 339,487.5C 337.086,485.107 334.419,482.773 331,480.5C 329.452,481.684 327.952,481.517 326.5,480C 326.501,478.601 326.835,477.101 327.5,475.5C 324.651,470.287 323.151,470.287 323,475.5C 322.085,474.672 321.419,473.672 321,472.5C 320.667,472.833 320.333,473.167 320,473.5C 319.333,472.167 318.333,471.167 317,470.5C 315.054,470.588 313.054,470.921 311,471.5C 309.273,471.354 309.106,470.687 310.5,469.5C 310.192,468.692 309.692,468.025 309,467.5C 307.796,468.471 307.296,469.471 307.5,470.5C 306.5,469.833 305.5,469.167 304.5,468.5C 303.667,481.821 303.167,495.154 303,508.5C 300.487,512.212 296.987,513.378 292.5,512C 291.667,511.167 290.833,510.333 290,509.5C 289.333,494.5 289.333,479.5 290,464.5C 290.833,463.667 291.667,462.833 292.5,462C 295.324,461.199 297.324,461.365 298.5,462.5C 295.348,461.959 292.848,462.959 291,465.5C 290.333,479.833 290.333,494.167 291,508.5C 294.381,512.485 297.714,512.485 301,508.5C 301.5,494.171 301.667,479.837 301.5,465.5C 302.263,464.732 303.263,464.232 304.5,464C 300.04,462.72 299.54,461.554 303,460.5C 303.667,456.833 302.333,455.833 299,457.5C 298.667,456.833 298.333,456.167 298,455.5C 296.457,456.285 294.79,456.285 293,455.5C 289.957,455.499 289.79,456.332 292.5,458C 287.798,458.682 286.131,456.849 287.5,452.5C 286.066,451.77 284.9,450.77 284,449.5C 283.075,450.047 282.242,450.713 281.5,451.5C 282.656,474.79 282.823,498.124 282,521.5C 281.722,522.416 281.222,523.082 280.5,523.5C 280.667,499.164 280.5,474.831 280,450.5C 276.381,447.657 273.048,447.99 270,451.5C 269.5,475.164 269.333,498.831 269.5,522.5C 268.337,498.67 268.17,474.67 269,450.5C 269.833,449.667 270.667,448.833 271.5,448C 269.277,447.738 266.943,447.905 264.5,448.5C 263.975,449.192 263.308,449.692 262.5,450C 263.451,450.718 263.617,451.551 263,452.5C 260.725,447.869 258.058,447.869 255,452.5C 254.667,451.167 254.333,449.833 254,448.5C 251.91,449.791 250.576,449.124 250,446.5C 247.607,448.994 246.44,448.327 246.5,444.5C 245.448,444.649 244.448,444.483 243.5,444C 244.711,442.887 244.711,441.72 243.5,440.5C 243.938,439.494 244.604,439.494 245.5,440.5C 247.203,436.684 245.87,434.85 241.5,435C 244.742,434.717 245.076,433.883 242.5,432.5C 244.113,431.573 245.779,430.739 247.5,430C 246.833,429.333 246.167,428.667 245.5,428C 246.694,425.342 245.694,424.176 242.5,424.5C 262.677,411.697 284.677,406.863 308.5,410C 329.778,423.037 342.778,441.87 347.5,466.5 Z"/></g>
<g><path style="opacity:1" fill="#459efc" d="M 119.5,408.5 C 142.502,410 163.502,417.167 182.5,430C 186.668,433.002 190.335,436.502 193.5,440.5C 193.859,442.371 194.859,443.871 196.5,445C 195.234,445.309 194.067,445.809 193,446.5C 192.667,446.167 192.333,445.833 192,445.5C 191.316,446.784 191.483,447.951 192.5,449C 190.562,449.021 188.562,448.854 186.5,448.5C 185.289,449.274 185.289,450.107 186.5,451C 185.747,452.487 184.914,452.654 184,451.5C 182.611,455.272 181.611,455.272 181,451.5C 180.16,454.464 179.16,454.797 178,452.5C 176.215,453.24 174.382,453.907 172.5,454.5C 171.304,454.154 171.304,453.654 172.5,453C 170.833,452.333 169.167,452.333 167.5,453C 168.5,453.333 169.5,453.667 170.5,454C 169.167,454.667 169.167,455.333 170.5,456C 168.866,456.494 167.199,456.66 165.5,456.5C 165.5,455.5 165.5,454.5 165.5,453.5C 163.801,453.34 162.134,453.506 160.5,454C 161.634,455.016 161.301,455.683 159.5,456C 162.811,459.554 162.144,461.221 157.5,461C 158.603,459.32 158.27,457.82 156.5,456.5C 155.459,458.991 154.626,458.991 154,456.5C 153.517,457.448 153.351,458.448 153.5,459.5C 149.83,458.499 146.33,458.499 143,459.5C 139.71,461.481 136.71,463.814 134,466.5C 133.309,463.409 131.476,462.243 128.5,463C 130.504,464.36 131.337,466.193 131,468.5C 130.085,467.672 129.419,466.672 129,465.5C 126.913,466.834 125.413,468.667 124.5,471C 122.975,472.009 121.308,472.509 119.5,472.5C 119.649,473.552 119.483,474.552 119,475.5C 117.798,473.447 117.464,471.447 118,469.5C 115.635,471.365 115.468,473.032 117.5,474.5C 117.154,475.696 116.654,475.696 116,474.5C 115.667,477.167 115.333,479.833 115,482.5C 114.333,458.833 114.333,435.167 115,411.5C 116.409,410.219 117.909,409.219 119.5,408.5 Z"/></g>
<g><path style="opacity:1" fill="#7f5ffd" d="M 242.5,424.5 C 245.694,424.176 246.694,425.342 245.5,428C 246.167,428.667 246.833,429.333 247.5,430C 245.779,430.739 244.113,431.573 242.5,432.5C 245.076,433.883 244.742,434.717 241.5,435C 245.87,434.85 247.203,436.684 245.5,440.5C 244.604,439.494 243.938,439.494 243.5,440.5C 244.711,441.72 244.711,442.887 243.5,444C 244.448,444.483 245.448,444.649 246.5,444.5C 246.44,448.327 247.607,448.994 250,446.5C 250.576,449.124 251.91,449.791 254,448.5C 254.333,449.833 254.667,451.167 255,452.5C 258.058,447.869 260.725,447.869 263,452.5C 263.617,451.551 263.451,450.718 262.5,450C 263.308,449.692 263.975,449.192 264.5,448.5C 266.943,447.905 269.277,447.738 271.5,448C 270.667,448.833 269.833,449.667 269,450.5C 268.17,474.67 268.337,498.67 269.5,522.5C 272.893,526.011 276.559,526.344 280.5,523.5C 281.222,523.082 281.722,522.416 282,521.5C 282.823,498.124 282.656,474.79 281.5,451.5C 282.242,450.713 283.075,450.047 284,449.5C 284.9,450.77 286.066,451.77 287.5,452.5C 286.131,456.849 287.798,458.682 292.5,458C 289.79,456.332 289.957,455.499 293,455.5C 294.79,456.285 296.457,456.285 298,455.5C 298.333,456.167 298.667,456.833 299,457.5C 302.333,455.833 303.667,456.833 303,460.5C 299.54,461.554 300.04,462.72 304.5,464C 303.263,464.232 302.263,464.732 301.5,465.5C 300.167,464.833 299.167,463.833 298.5,462.5C 297.324,461.365 295.324,461.199 292.5,462C 291.667,462.833 290.833,463.667 290,464.5C 289.333,479.5 289.333,494.5 290,509.5C 290.833,510.333 291.667,511.167 292.5,512C 296.987,513.378 300.487,512.212 303,508.5C 303.167,495.154 303.667,481.821 304.5,468.5C 305.5,469.167 306.5,469.833 307.5,470.5C 307.296,469.471 307.796,468.471 309,467.5C 309.692,468.025 310.192,468.692 310.5,469.5C 309.106,470.687 309.273,471.354 311,471.5C 313.054,470.921 315.054,470.588 317,470.5C 318.333,471.167 319.333,472.167 320,473.5C 320.333,473.167 320.667,472.833 321,472.5C 321.419,473.672 322.085,474.672 323,475.5C 323.151,470.287 324.651,470.287 327.5,475.5C 326.835,477.101 326.501,478.601 326.5,480C 327.952,481.517 329.452,481.684 331,480.5C 334.419,482.773 337.086,485.107 339,487.5C 340.54,483.426 341.873,483.093 343,486.5C 343.5,485 344,483.5 344.5,482C 343.385,480.607 342.885,479.107 343,477.5C 343.667,478.833 344.333,478.833 345,477.5C 345.333,479.167 345.667,480.833 346,482.5C 346.323,477.134 346.823,471.801 347.5,466.5C 353.62,507.76 338.287,538.26 301.5,558C 289.554,562.723 277.22,566.057 264.5,568C 257.276,570.279 250.609,573.612 244.5,578C 236.47,586.364 228.137,594.364 219.5,602C 217.975,603.009 216.308,603.509 214.5,603.5C 214.5,553.5 214.5,503.5 214.5,453.5C 215.333,497.665 215.833,541.998 216,586.5C 217.666,587.34 217.833,586.84 216.5,585C 217,584.5 217.5,584 218,583.5C 219.835,584.119 222.001,584.286 224.5,584C 225.061,582.324 226.061,580.991 227.5,580C 226.833,578.667 226.167,577.333 225.5,576C 226.849,575.228 227.682,574.061 228,572.5C 228.333,573.5 228.667,574.5 229,575.5C 230.154,574.257 231.488,573.257 233,572.5C 233.687,569.029 232.687,568.695 230,571.5C 229.571,569.331 230.071,567.331 231.5,565.5C 231.291,564.914 230.957,564.414 230.5,564C 234.5,563 234.5,562 230.5,561C 231.791,558.91 231.124,557.576 228.5,557C 229.749,555.176 230.915,555.343 232,557.5C 235.472,555.576 236.305,552.91 234.5,549.5C 232.645,549.728 231.812,549.061 232,547.5C 232.333,547.833 232.667,548.167 233,548.5C 234.171,547.107 235.671,546.273 237.5,546C 236.167,544.667 234.833,543.333 233.5,542C 240.465,541.732 242.131,538.732 238.5,533C 239.668,531.594 239.335,530.428 237.5,529.5C 238.52,527.568 238.687,525.568 238,523.5C 237.667,524.167 237.333,524.833 237,525.5C 235.562,522.722 235.562,520.056 237,517.5C 237.718,518.451 238.551,518.617 239.5,518C 235.88,515.215 236.214,513.715 240.5,513.5C 239.229,510.403 237.729,510.069 236,512.5C 232.94,510.058 233.44,508.224 237.5,507C 236.167,506 236.167,505 237.5,504C 235.205,503.016 235.539,502.183 238.5,501.5C 238.833,502.167 239.167,502.833 239.5,503.5C 241.981,502.859 244.314,502.526 246.5,502.5C 245.814,500.936 245.981,499.269 247,497.5C 247.17,486.659 247.67,475.992 248.5,465.5C 249.087,464.233 249.087,463.233 248.5,462.5C 247.481,463.687 246.314,464.687 245,465.5C 244.228,464.151 243.061,463.318 241.5,463C 242.654,462.086 242.487,461.253 241,460.5C 239.056,465.765 237.056,465.765 235,460.5C 234.667,460.833 234.333,461.167 234,461.5C 233.46,459.865 233.96,458.532 235.5,457.5C 234.891,454.163 233.724,453.83 232,456.5C 230.027,453.383 228.193,450.216 226.5,447C 227.744,446.544 228.577,447.044 229,448.5C 229.5,448 230,447.5 230.5,447C 228.116,444.621 226.616,441.787 226,438.5C 224.961,439.71 223.794,440.71 222.5,441.5C 224.22,438.269 226.553,435.436 229.5,433C 233.549,429.648 237.882,426.815 242.5,424.5 Z"/></g>
<g><path style="opacity:1" fill="#f9f7fe" d="M 280.5,523.5 C 276.559,526.344 272.893,526.011 269.5,522.5C 269.333,498.831 269.5,475.164 270,451.5C 273.048,447.99 276.381,447.657 280,450.5C 280.5,474.831 280.667,499.164 280.5,523.5 Z"/></g>
<g><path style="opacity:1" fill="#4a98fc" d="M 119.5,408.5 C 117.909,409.219 116.409,410.219 115,411.5C 114.333,435.167 114.333,458.833 115,482.5C 115.333,479.833 115.667,477.167 116,474.5C 116.654,475.696 117.154,475.696 117.5,474.5C 115.468,473.032 115.635,471.365 118,469.5C 117.464,471.447 117.798,473.447 119,475.5C 119.483,474.552 119.649,473.552 119.5,472.5C 121.308,472.509 122.975,472.009 124.5,471C 125.413,468.667 126.913,466.834 129,465.5C 129.419,466.672 130.085,467.672 131,468.5C 131.337,466.193 130.504,464.36 128.5,463C 131.476,462.243 133.309,463.409 134,466.5C 136.71,463.814 139.71,461.481 143,459.5C 146.33,458.499 149.83,458.499 153.5,459.5C 153.351,458.448 153.517,457.448 154,456.5C 154.626,458.991 155.459,458.991 156.5,456.5C 158.27,457.82 158.603,459.32 157.5,461C 162.144,461.221 162.811,459.554 159.5,456C 161.301,455.683 161.634,455.016 160.5,454C 162.134,453.506 163.801,453.34 165.5,453.5C 165.5,454.5 165.5,455.5 165.5,456.5C 167.199,456.66 168.866,456.494 170.5,456C 169.167,455.333 169.167,454.667 170.5,454C 169.5,453.667 168.5,453.333 167.5,453C 169.167,452.333 170.833,452.333 172.5,453C 171.304,453.654 171.304,454.154 172.5,454.5C 174.382,453.907 176.215,453.24 178,452.5C 179.16,454.797 180.16,454.464 181,451.5C 181.611,455.272 182.611,455.272 184,451.5C 184.914,452.654 185.747,452.487 186.5,451C 185.289,450.107 185.289,449.274 186.5,448.5C 188.562,448.854 190.562,449.021 192.5,449C 191.483,447.951 191.316,446.784 192,445.5C 192.333,445.833 192.667,446.167 193,446.5C 194.067,445.809 195.234,445.309 196.5,445C 194.859,443.871 193.859,442.371 193.5,440.5C 200.945,445.033 203.611,451.366 201.5,459.5C 200.644,465.465 199.978,472.799 199.5,481.5C 197.514,482.761 195.681,482.428 194,480.5C 193.835,482.678 194.668,484.511 196.5,486C 194.017,486.17 191.851,485.336 190,483.5C 189.667,484.5 189.333,485.5 189,486.5C 188.77,482.787 187.603,482.12 185.5,484.5C 181.563,482.963 179.896,484.13 180.5,488C 177.845,489.76 176.512,489.26 176.5,486.5C 174.693,488.164 173.693,489.831 173.5,491.5C 171.332,489.545 168.998,488.879 166.5,489.5C 163.163,490.109 162.83,491.276 165.5,493C 163.965,493.496 162.465,493.33 161,492.5C 157.465,492.92 156.965,494.087 159.5,496C 157.001,496.286 154.835,496.119 153,495.5C 150.457,496.876 150.291,498.043 152.5,499C 150.693,501.276 149.193,501.443 148,499.5C 146.676,500.88 145.343,501.214 144,500.5C 143.026,502.878 142.359,502.544 142,499.5C 139.266,500.362 139.099,501.195 141.5,502C 140.167,502.333 138.833,502.667 137.5,503C 139.686,503.604 139.852,504.77 138,506.5C 136.983,503.972 135.816,503.972 134.5,506.5C 133.549,505.674 132.549,505.508 131.5,506C 131.833,506.333 132.167,506.667 132.5,507C 131.333,507.5 130.5,508.333 130,509.5C 129.692,508.692 129.192,508.025 128.5,507.5C 126.95,509.959 124.95,510.626 122.5,509.5C 121.253,511.006 121.253,512.506 122.5,514C 120.77,515.852 119.604,515.686 119,513.5C 118.147,515.125 117.147,515.458 116,514.5C 116.21,518.202 115.71,521.869 114.5,525.5C 114.662,523.473 114.495,521.473 114,519.5C 113.827,525.016 113.327,530.349 112.5,535.5C 112.333,494.499 112.5,453.499 113,412.5C 114.026,409.307 116.192,407.974 119.5,408.5 Z"/></g>
<g><path style="opacity:1" fill="#f9f7fe" d="M 248.5,465.5 C 252.74,461.316 256.573,461.649 260,466.5C 260.667,480.167 260.667,493.833 260,507.5C 258.309,511.213 255.475,512.379 251.5,511C 250.299,510.097 249.465,508.931 249,507.5C 248.5,493.504 248.333,479.504 248.5,465.5 Z"/></g>
<g><path style="opacity:1" fill="#fefdfe" d="M 298.5,462.5 C 299.167,463.833 300.167,464.833 301.5,465.5C 301.667,479.837 301.5,494.171 301,508.5C 297.714,512.485 294.381,512.485 291,508.5C 290.333,494.167 290.333,479.833 291,465.5C 292.848,462.959 295.348,461.959 298.5,462.5 Z"/></g>
<g><path style="opacity:1" fill="#060811" d="M 411.5,447.5 C 411.667,477.169 411.5,506.835 411,536.5C 410.5,507.502 410.333,478.502 410.5,449.5C 404.833,449.5 399.167,449.5 393.5,449.5C 393.5,484.5 393.5,519.5 393.5,554.5C 411.167,554.5 428.833,554.5 446.5,554.5C 446.5,548.5 446.5,542.5 446.5,536.5C 448.456,542.412 449.123,548.745 448.5,555.5C 429.833,555.5 411.167,555.5 392.5,555.5C 392.5,519.5 392.5,483.5 392.5,447.5C 398.833,447.5 405.167,447.5 411.5,447.5 Z"/></g>
<g><path style="opacity:1" fill="#fbf9fe" d="M 314.5,476.5 C 317.044,476.104 319.211,476.771 321,478.5C 321.667,484.167 321.667,489.833 321,495.5C 317.626,498.405 314.626,498.072 312,494.5C 311.333,489.5 311.333,484.5 312,479.5C 313.045,478.627 313.878,477.627 314.5,476.5 Z"/></g>
<g><path style="opacity:1" fill="#131f33" d="M 486.5,476.5 C 515.882,477.553 530.215,492.887 529.5,522.5C 511.167,522.5 492.833,522.5 474.5,522.5C 475.094,531.612 479.761,537.778 488.5,541C 498.998,543.088 507.498,539.921 514,531.5C 518.814,534.321 522.98,537.821 526.5,542C 518.393,552.995 507.393,558.162 493.5,557.5C 471.39,555.557 458.89,543.557 456,521.5C 453.846,497.867 464.012,482.867 486.5,476.5 Z"/></g>
<g><path style="opacity:1" fill="#5092fd" d="M 199.5,481.5 C 199.5,491.167 199.5,500.833 199.5,510.5C 198.778,510.082 198.278,509.416 198,508.5C 197.333,509.833 196.667,509.833 196,508.5C 195.667,509.167 195.333,509.833 195,510.5C 193.612,509.446 192.112,509.28 190.5,510C 191.784,511.297 191.617,512.464 190,513.5C 188.853,512.542 187.853,512.875 187,514.5C 185.873,511.093 184.54,511.426 183,515.5C 182.71,513.956 182.044,512.623 181,511.5C 180.683,513.301 180.016,513.634 179,512.5C 176.782,514.092 175.115,516.092 174,518.5C 173.667,517.5 173.333,516.5 173,515.5C 170.919,515.844 168.586,516.511 166,517.5C 164.715,517.05 163.548,516.383 162.5,515.5C 161.304,515.846 161.304,516.346 162.5,517C 160.152,517.11 158.652,518.277 158,520.5C 157.311,519.643 156.478,518.977 155.5,518.5C 152.911,519.761 150.744,521.428 149,523.5C 148.526,518.373 147.526,518.373 146,523.5C 144.853,522.542 143.853,522.875 143,524.5C 142.667,523.833 142.333,523.167 142,522.5C 138.248,524.121 134.414,525.621 130.5,527C 133.279,527.149 133.779,527.983 132,529.5C 130.415,528.624 129.415,527.291 129,525.5C 128.667,526.833 128.333,528.167 128,529.5C 127.586,529.043 127.086,528.709 126.5,528.5C 123.956,530.629 121.122,532.296 118,533.5C 117.544,534.744 118.044,535.577 119.5,536C 116.785,536.961 115.118,538.794 114.5,541.5C 114.5,536.167 114.5,530.833 114.5,525.5C 115.71,521.869 116.21,518.202 116,514.5C 117.147,515.458 118.147,515.125 119,513.5C 119.604,515.686 120.77,515.852 122.5,514C 121.253,512.506 121.253,511.006 122.5,509.5C 124.95,510.626 126.95,509.959 128.5,507.5C 129.192,508.025 129.692,508.692 130,509.5C 130.5,508.333 131.333,507.5 132.5,507C 132.167,506.667 131.833,506.333 131.5,506C 132.549,505.508 133.549,505.674 134.5,506.5C 135.816,503.972 136.983,503.972 138,506.5C 139.852,504.77 139.686,503.604 137.5,503C 138.833,502.667 140.167,502.333 141.5,502C 139.099,501.195 139.266,500.362 142,499.5C 142.359,502.544 143.026,502.878 144,500.5C 145.343,501.214 146.676,500.88 148,499.5C 149.193,501.443 150.693,501.276 152.5,499C 150.291,498.043 150.457,496.876 153,495.5C 154.835,496.119 157.001,496.286 159.5,496C 156.965,494.087 157.465,492.92 161,492.5C 162.465,493.33 163.965,493.496 165.5,493C 162.83,491.276 163.163,490.109 166.5,489.5C 168.998,488.879 171.332,489.545 173.5,491.5C 173.693,489.831 174.693,488.164 176.5,486.5C 176.512,489.26 177.845,489.76 180.5,488C 179.896,484.13 181.563,482.963 185.5,484.5C 187.603,482.12 188.77,482.787 189,486.5C 189.333,485.5 189.667,484.5 190,483.5C 191.851,485.336 194.017,486.17 196.5,486C 194.668,484.511 193.835,482.678 194,480.5C 195.681,482.428 197.514,482.761 199.5,481.5 Z"/></g>
<g><path style="opacity:1" fill="#122035" d="M 562.5,506.5 C 561.124,506.747 560.29,508.081 560,510.5C 559.5,525.163 559.333,539.83 559.5,554.5C 554.167,554.5 548.833,554.5 543.5,554.5C 543.5,529.5 543.5,504.5 543.5,479.5C 548.5,479.5 553.5,479.5 558.5,479.5C 558.185,483.371 558.518,487.038 559.5,490.5C 565.759,481.05 575.092,476.717 587.5,477.5C 587.83,483.868 587.496,490.202 586.5,496.5C 576.27,494.574 568.27,497.908 562.5,506.5 Z"/></g>
<g><path style="opacity:1" fill="#132237" d="M 411.5,447.5 C 412.498,476.995 412.831,506.662 412.5,536.5C 423.833,536.5 435.167,536.5 446.5,536.5C 446.5,542.5 446.5,548.5 446.5,554.5C 428.833,554.5 411.167,554.5 393.5,554.5C 393.5,519.5 393.5,484.5 393.5,449.5C 399.167,449.5 404.833,449.5 410.5,449.5C 410.333,478.502 410.5,507.502 411,536.5C 411.5,506.835 411.667,477.169 411.5,447.5 Z"/></g>
<g><path style="opacity:1" fill="#fbfbfc" d="M 486.5,492.5 C 500.131,490.49 508.131,496.156 510.5,509.5C 498.5,509.5 486.5,509.5 474.5,509.5C 475.38,501.621 479.38,495.955 486.5,492.5 Z"/></g>
<g><path style="opacity:1" fill="#7d64fd" d="M 248.5,465.5 C 247.67,475.992 247.17,486.659 247,497.5C 245.981,499.269 245.814,500.936 246.5,502.5C 244.314,502.526 241.981,502.859 239.5,503.5C 239.167,502.833 238.833,502.167 238.5,501.5C 235.539,502.183 235.205,503.016 237.5,504C 236.167,505 236.167,506 237.5,507C 233.44,508.224 232.94,510.058 236,512.5C 237.729,510.069 239.229,510.403 240.5,513.5C 236.214,513.715 235.88,515.215 239.5,518C 238.551,518.617 237.718,518.451 237,517.5C 235.562,520.056 235.562,522.722 237,525.5C 237.333,524.833 237.667,524.167 238,523.5C 238.687,525.568 238.52,527.568 237.5,529.5C 239.335,530.428 239.668,531.594 238.5,533C 242.131,538.732 240.465,541.732 233.5,542C 234.833,543.333 236.167,544.667 237.5,546C 235.671,546.273 234.171,547.107 233,548.5C 232.667,548.167 232.333,547.833 232,547.5C 231.812,549.061 232.645,549.728 234.5,549.5C 236.305,552.91 235.472,555.576 232,557.5C 230.915,555.343 229.749,555.176 228.5,557C 231.124,557.576 231.791,558.91 230.5,561C 234.5,562 234.5,563 230.5,564C 230.957,564.414 231.291,564.914 231.5,565.5C 230.071,567.331 229.571,569.331 230,571.5C 232.687,568.695 233.687,569.029 233,572.5C 231.488,573.257 230.154,574.257 229,575.5C 228.667,574.5 228.333,573.5 228,572.5C 227.682,574.061 226.849,575.228 225.5,576C 226.167,577.333 226.833,578.667 227.5,580C 226.061,580.991 225.061,582.324 224.5,584C 222.001,584.286 219.835,584.119 218,583.5C 217.5,584 217,584.5 216.5,585C 217.833,586.84 217.666,587.34 216,586.5C 215.833,541.998 215.333,497.665 214.5,453.5C 215.998,448.678 218.664,444.678 222.5,441.5C 223.794,440.71 224.961,439.71 226,438.5C 226.616,441.787 228.116,444.621 230.5,447C 230,447.5 229.5,448 229,448.5C 228.577,447.044 227.744,446.544 226.5,447C 228.193,450.216 230.027,453.383 232,456.5C 233.724,453.83 234.891,454.163 235.5,457.5C 233.96,458.532 233.46,459.865 234,461.5C 234.333,461.167 234.667,460.833 235,460.5C 237.056,465.765 239.056,465.765 241,460.5C 242.487,461.253 242.654,462.086 241.5,463C 243.061,463.318 244.228,464.151 245,465.5C 246.314,464.687 247.481,463.687 248.5,462.5C 249.087,463.233 249.087,464.233 248.5,465.5 Z"/></g>
<g><path style="opacity:1" fill="#fcfbfe" d="M 231.5,476.5 C 233.936,476.317 236.103,476.984 238,478.5C 238.667,484.167 238.667,489.833 238,495.5C 234.626,498.405 231.626,498.072 229,494.5C 228.333,489.5 228.333,484.5 229,479.5C 230.045,478.627 230.878,477.627 231.5,476.5 Z"/></g>
<g><path style="opacity:1" fill="#121f34" d="M 874.5,476.5 C 901.281,475.788 916.614,488.622 920.5,515C 917.876,545.967 901.21,559.634 870.5,556C 851.322,549.668 841.655,536.335 841.5,516C 843.366,494.984 854.366,481.817 874.5,476.5 Z"/></g>
<g><path style="opacity:1" fill="#fcfcfc" d="M 877.5,493.5 C 892.693,493.693 900.693,501.36 901.5,516.5C 899.634,537.26 888.967,544.093 869.5,537C 861.35,529.59 858.517,520.423 861,509.5C 863.752,501.247 869.252,495.913 877.5,493.5 Z"/></g>
<g><path style="opacity:1" fill="#558cfd" d="M 199.5,510.5 C 199.666,520.172 199.5,529.839 199,539.5C 199.094,534.312 198.594,531.312 197.5,530.5C 195.669,529.948 194.003,529.948 192.5,530.5C 190.807,533.126 189.974,535.793 190,538.5C 189.228,537.151 188.061,536.318 186.5,536C 187.5,535 188.5,534 189.5,533C 186.931,531.574 184.764,531.741 183,533.5C 182.667,533.167 182.333,532.833 182,532.5C 181.333,533.5 181.333,534.5 182,535.5C 182.654,534.304 183.154,534.304 183.5,535.5C 182.675,536.386 181.675,536.719 180.5,536.5C 180.671,533.203 180.005,532.869 178.5,535.5C 176.577,535.37 174.744,535.036 173,534.5C 171.863,535.364 170.53,536.364 169,537.5C 167.322,536.318 167.488,535.152 169.5,534C 169.056,532.238 168.556,532.405 168,534.5C 167.311,533.643 166.478,532.977 165.5,532.5C 163.622,532.623 161.789,532.623 160,532.5C 159.667,533.167 159.333,533.833 159,534.5C 158,534.167 157,533.833 156,533.5C 155.005,535.161 153.672,536.495 152,537.5C 149.649,537.18 147.316,536.847 145,536.5C 144.395,538.481 143.395,538.815 142,537.5C 141.25,538.126 140.416,538.626 139.5,539C 140.696,539.654 140.696,540.154 139.5,540.5C 137.549,539.744 135.716,539.411 134,539.5C 133.5,540.667 132.667,541.5 131.5,542C 132.451,542.718 132.617,543.551 132,544.5C 130.667,543.833 129.667,542.833 129,541.5C 128.333,542.833 127.667,542.833 127,541.5C 126.308,542.025 125.808,542.692 125.5,543.5C 126.428,544.768 126.595,546.101 126,547.5C 125.667,546.833 125.333,546.167 125,545.5C 122.621,546.467 120.788,548.467 119.5,551.5C 118.808,550.975 118.308,550.308 118,549.5C 117,551.167 116,552.833 115,554.5C 114.501,550.179 114.334,545.846 114.5,541.5C 115.118,538.794 116.785,536.961 119.5,536C 118.044,535.577 117.544,534.744 118,533.5C 121.122,532.296 123.956,530.629 126.5,528.5C 127.086,528.709 127.586,529.043 128,529.5C 128.333,528.167 128.667,526.833 129,525.5C 129.415,527.291 130.415,528.624 132,529.5C 133.779,527.983 133.279,527.149 130.5,527C 134.414,525.621 138.248,524.121 142,522.5C 142.333,523.167 142.667,523.833 143,524.5C 143.853,522.875 144.853,522.542 146,523.5C 147.526,518.373 148.526,518.373 149,523.5C 150.744,521.428 152.911,519.761 155.5,518.5C 156.478,518.977 157.311,519.643 158,520.5C 158.652,518.277 160.152,517.11 162.5,517C 161.304,516.346 161.304,515.846 162.5,515.5C 163.548,516.383 164.715,517.05 166,517.5C 168.586,516.511 170.919,515.844 173,515.5C 173.333,516.5 173.667,517.5 174,518.5C 175.115,516.092 176.782,514.092 179,512.5C 180.016,513.634 180.683,513.301 181,511.5C 182.044,512.623 182.71,513.956 183,515.5C 184.54,511.426 185.873,511.093 187,514.5C 187.853,512.875 188.853,512.542 190,513.5C 191.617,512.464 191.784,511.297 190.5,510C 192.112,509.28 193.612,509.446 195,510.5C 195.333,509.833 195.667,509.167 196,508.5C 196.667,509.833 197.333,509.833 198,508.5C 198.278,509.416 198.778,510.082 199.5,510.5 Z"/></g>
<g><path style="opacity:1" fill="#122036" d="M 668.5,502.5 C 667.503,519.659 667.17,536.992 667.5,554.5C 662.167,554.5 656.833,554.5 651.5,554.5C 651.945,536.777 651.445,519.111 650,501.5C 646.093,493.189 639.593,490.023 630.5,492C 628.68,492.2 627.347,493.034 626.5,494.5C 623.833,496.5 621.5,498.833 619.5,501.5C 618.124,501.747 617.29,503.081 617,505.5C 616.5,521.83 616.333,538.163 616.5,554.5C 611.167,554.5 605.833,554.5 600.5,554.5C 600.5,529.5 600.5,504.5 600.5,479.5C 605.5,479.5 610.5,479.5 615.5,479.5C 615.194,482.385 615.527,485.052 616.5,487.5C 628.403,475.523 642.07,473.357 657.5,481C 664.48,486.46 668.147,493.626 668.5,502.5 Z"/></g>
<g><path style="opacity:1" fill="#121e32" d="M 714.5,476.5 C 736.178,475.578 750.678,485.245 758,505.5C 761.609,522.577 757.109,537.077 744.5,549C 733.883,556.126 722.217,558.46 709.5,556C 688.191,547.903 678.691,532.403 681,509.5C 685.463,491.536 696.629,480.536 714.5,476.5 Z"/></g>
<g><path style="opacity:1" fill="#fcfcfc" d="M 716.5,493.5 C 735.079,494.965 742.912,504.965 740,523.5C 734.396,539.385 723.896,543.885 708.5,537C 699.17,527.71 697.004,516.877 702,504.5C 705.514,499.003 710.348,495.337 716.5,493.5 Z"/></g>
<g><path style="opacity:1" fill="#121e32" d="M 758.5,479.5 C 765.648,478.508 772.981,478.175 780.5,478.5C 786.569,496.705 793.236,514.705 800.5,532.5C 807.164,514.843 813.831,497.176 820.5,479.5C 827.167,478.167 833.833,478.167 840.5,479.5C 830.43,504.713 820.764,530.046 811.5,555.5C 803.913,555.814 796.413,555.481 789,554.5C 779.296,529.199 769.129,504.199 758.5,479.5 Z"/></g>
<g><path style="opacity:1" fill="#5886fd" d="M 201.5,459.5 C 201.833,508.209 201.5,555.542 200.5,601.5C 201.219,575.749 200.886,561.416 199.5,558.5C 198.834,554.979 198.167,551.313 197.5,547.5C 196.186,548.313 195.019,549.313 194,550.5C 193.692,549.692 193.192,549.025 192.5,548.5C 191.167,549.5 189.833,550.5 188.5,551.5C 187.575,550.359 186.741,550.359 186,551.5C 185.667,550.833 185.333,550.167 185,549.5C 183.956,550.623 183.29,551.956 183,553.5C 182.333,550.833 181.667,550.833 181,553.5C 177.542,552.652 174.542,553.652 172,556.5C 171.383,555.551 171.549,554.718 172.5,554C 171.256,553.544 170.423,554.044 170,555.5C 168.309,552.869 167.142,553.203 166.5,556.5C 165.522,556.023 164.689,555.357 164,554.5C 163.581,555.672 162.915,556.672 162,557.5C 158.143,557.024 153.977,557.024 149.5,557.5C 148.749,558.376 148.249,559.376 148,560.5C 147.026,558.122 146.359,558.456 146,561.5C 145.581,560.328 144.915,559.328 144,558.5C 142.758,560.541 140.925,561.707 138.5,562C 139.833,562.333 141.167,562.667 142.5,563C 140.942,563.21 139.609,563.71 138.5,564.5C 132.574,563.019 126.574,561.852 120.5,561C 115.579,560.335 113.079,557.502 113,552.5C 112.501,546.843 112.334,541.176 112.5,535.5C 113.327,530.349 113.827,525.016 114,519.5C 114.495,521.473 114.662,523.473 114.5,525.5C 114.5,530.833 114.5,536.167 114.5,541.5C 114.334,545.846 114.501,550.179 115,554.5C 116,552.833 117,551.167 118,549.5C 118.308,550.308 118.808,550.975 119.5,551.5C 120.788,548.467 122.621,546.467 125,545.5C 125.333,546.167 125.667,546.833 126,547.5C 126.595,546.101 126.428,544.768 125.5,543.5C 125.808,542.692 126.308,542.025 127,541.5C 127.667,542.833 128.333,542.833 129,541.5C 129.667,542.833 130.667,543.833 132,544.5C 132.617,543.551 132.451,542.718 131.5,542C 132.667,541.5 133.5,540.667 134,539.5C 135.716,539.411 137.549,539.744 139.5,540.5C 140.696,540.154 140.696,539.654 139.5,539C 140.416,538.626 141.25,538.126 142,537.5C 143.395,538.815 144.395,538.481 145,536.5C 147.316,536.847 149.649,537.18 152,537.5C 153.672,536.495 155.005,535.161 156,533.5C 157,533.833 158,534.167 159,534.5C 159.333,533.833 159.667,533.167 160,532.5C 161.789,532.623 163.622,532.623 165.5,532.5C 166.478,532.977 167.311,533.643 168,534.5C 168.556,532.405 169.056,532.238 169.5,534C 167.488,535.152 167.322,536.318 169,537.5C 170.53,536.364 171.863,535.364 173,534.5C 174.744,535.036 176.577,535.37 178.5,535.5C 180.005,532.869 180.671,533.203 180.5,536.5C 181.675,536.719 182.675,536.386 183.5,535.5C 183.154,534.304 182.654,534.304 182,535.5C 181.333,534.5 181.333,533.5 182,532.5C 182.333,532.833 182.667,533.167 183,533.5C 184.764,531.741 186.931,531.574 189.5,533C 188.5,534 187.5,535 186.5,536C 188.061,536.318 189.228,537.151 190,538.5C 189.974,535.793 190.807,533.126 192.5,530.5C 194.003,529.948 195.669,529.948 197.5,530.5C 198.594,531.312 199.094,534.312 199,539.5C 199.5,529.839 199.666,520.172 199.5,510.5C 199.5,500.833 199.5,491.167 199.5,481.5C 199.978,472.799 200.644,465.465 201.5,459.5 Z"/></g>
<g><path style="opacity:1" fill="#161920" d="M 616.5,487.5 C 615.527,485.052 615.194,482.385 615.5,479.5C 610.5,479.5 605.5,479.5 600.5,479.5C 600.5,504.5 600.5,529.5 600.5,554.5C 605.833,554.5 611.167,554.5 616.5,554.5C 616.333,538.163 616.5,521.83 617,505.5C 617.29,503.081 618.124,501.747 619.5,501.5C 619.108,503.179 618.608,504.846 618,506.5C 617.5,522.83 617.333,539.163 617.5,555.5C 611.167,555.5 604.833,555.5 598.5,555.5C 598.5,529.833 598.5,504.167 598.5,478.5C 604.5,478.5 610.5,478.5 616.5,478.5C 616.5,481.5 616.5,484.5 616.5,487.5 Z"/></g>
<g><path style="opacity:1" fill="#10131d" d="M 668.5,502.5 C 668.5,520.167 668.5,537.833 668.5,555.5C 662.167,555.5 655.833,555.5 649.5,555.5C 649.667,537.83 649.5,520.164 649,502.5C 644.01,493.002 636.51,490.336 626.5,494.5C 627.347,493.034 628.68,492.2 630.5,492C 639.593,490.023 646.093,493.189 650,501.5C 651.445,519.111 651.945,536.777 651.5,554.5C 656.833,554.5 662.167,554.5 667.5,554.5C 667.17,536.992 667.503,519.659 668.5,502.5 Z"/></g>
<g><path style="opacity:1" fill="#0e111c" d="M 559.5,490.5 C 558.518,487.038 558.185,483.371 558.5,479.5C 553.5,479.5 548.5,479.5 543.5,479.5C 543.5,504.5 543.5,529.5 543.5,554.5C 548.833,554.5 554.167,554.5 559.5,554.5C 559.333,539.83 559.5,525.163 560,510.5C 560.29,508.081 561.124,506.747 562.5,506.5C 562.108,508.179 561.608,509.846 561,511.5C 560.5,526.163 560.333,540.83 560.5,555.5C 554.167,555.5 547.833,555.5 541.5,555.5C 541.5,529.833 541.5,504.167 541.5,478.5C 547.5,478.5 553.5,478.5 559.5,478.5C 559.5,482.5 559.5,486.5 559.5,490.5 Z"/></g>
<g><path style="opacity:1" fill="#5f81fd" d="M 199.5,558.5 C 199.667,570.171 199.5,581.838 199,593.5C 198.831,586.144 198.331,578.811 197.5,571.5C 195.641,571.888 193.641,571.888 191.5,571.5C 190.304,571.846 190.304,572.346 191.5,573C 189.888,573.72 188.388,573.554 187,572.5C 185,574.597 182.834,575.597 180.5,575.5C 181.167,576.5 181.833,577.5 182.5,578.5C 181.183,578.313 179.85,578.98 178.5,580.5C 170.959,575.05 162.959,571.384 154.5,569.5C 149.304,567.435 143.971,565.768 138.5,564.5C 139.609,563.71 140.942,563.21 142.5,563C 141.167,562.667 139.833,562.333 138.5,562C 140.925,561.707 142.758,560.541 144,558.5C 144.915,559.328 145.581,560.328 146,561.5C 146.359,558.456 147.026,558.122 148,560.5C 148.249,559.376 148.749,558.376 149.5,557.5C 153.977,557.024 158.143,557.024 162,557.5C 162.915,556.672 163.581,555.672 164,554.5C 164.689,555.357 165.522,556.023 166.5,556.5C 167.142,553.203 168.309,552.869 170,555.5C 170.423,554.044 171.256,553.544 172.5,554C 171.549,554.718 171.383,555.551 172,556.5C 174.542,553.652 177.542,552.652 181,553.5C 181.667,550.833 182.333,550.833 183,553.5C 183.29,551.956 183.956,550.623 185,549.5C 185.333,550.167 185.667,550.833 186,551.5C 186.741,550.359 187.575,550.359 188.5,551.5C 189.833,550.5 191.167,549.5 192.5,548.5C 193.192,549.025 193.692,549.692 194,550.5C 195.019,549.313 196.186,548.313 197.5,547.5C 198.167,551.313 198.834,554.979 199.5,558.5 Z"/></g>
<g><path style="opacity:1" fill="#6076fd" d="M 200.5,601.5 C 187.676,587.362 172.343,576.695 154.5,569.5C 162.959,571.384 170.959,575.05 178.5,580.5C 179.85,578.98 181.183,578.313 182.5,578.5C 181.833,577.5 181.167,576.5 180.5,575.5C 182.834,575.597 185,574.597 187,572.5C 188.388,573.554 189.888,573.72 191.5,573C 190.304,572.346 190.304,571.846 191.5,571.5C 193.641,571.888 195.641,571.888 197.5,571.5C 198.331,578.811 198.831,586.144 199,593.5C 199.5,581.838 199.667,570.171 199.5,558.5C 200.886,561.416 201.219,575.749 200.5,601.5 Z"/></g>
</svg>
